<svg width="24" height="24" viewBox="0 0 24 24" fill="none" xmlns="http://www.w3.org/2000/svg">
<path fill-rule="evenodd" clip-rule="evenodd" d="M0.00345055 6.87256C0.00360058 6.30721 0.463128 5.61319 1.03172 5.32129L10.972 0.218505C11.5398 -0.0730056 12.4595 -0.0730057 13.0283 0.21953L22.972 5.33205C23.54 5.62394 24.0001 6.31822 24 6.886L23.9958 17.0771C23.9956 17.6434 23.5354 18.3401 22.9684 18.6331L13.0067 23.7803C12.4395 24.0735 11.521 24.0734 10.9529 23.779L1.02617 18.6344C0.459078 18.3406 -0.000299904 17.6444 1.46904e-07 17.0788L0.00345055 6.87256ZM2.0942 6.04373L11.971 10.7498L21.3875 6.10531L11.9551 1.37892L2.0942 6.04373ZM1.4572 7.56683C1.4572 7.77526 1.29742 16.7667 1.29742 16.7667C1.29232 17.0491 1.51751 17.3961 1.80255 17.543L11.0459 22.3032L11.131 12.3924C11.131 12.3924 1.4572 7.35828 1.4572 7.56683ZM12.8752 22.2817L22.0135 17.3323C22.3634 17.1428 22.6471 16.703 22.6471 16.3492V7.51627L12.8752 12.3188V22.2817Z" fill="#979797"/>
<path fill-rule="evenodd" clip-rule="evenodd" d="M4.48397 12.53C3.76654 12.8836 2.81538 12.6241 2.35961 11.9506C1.90398 11.277 2.11627 10.4444 2.83369 10.0909C3.55126 9.73728 4.50242 9.99678 4.95805 10.6703C5.41382 11.3439 5.20154 12.1765 4.48397 12.53ZM9.28478 15.2185C8.56735 15.5721 7.61619 15.3126 7.16042 14.6391C6.70479 13.9655 6.91708 13.1329 7.6345 12.7794C8.35207 12.4258 9.30323 12.6853 9.75886 13.3588C10.2146 14.0324 10.0023 14.865 9.28478 15.2185ZM4.48397 17.2669C3.76654 17.6205 2.81538 17.361 2.35961 16.6875C1.90398 16.0139 2.11627 15.1812 2.83369 14.8278C3.55126 14.4742 4.50242 14.7337 4.95805 15.4072C5.41382 16.0807 5.20154 16.9134 4.48397 17.2669ZM9.28478 19.9554C8.56735 20.309 7.61619 20.0495 7.16042 19.376C6.70479 18.7024 6.91708 17.8698 7.6345 17.5163C8.35207 17.1627 9.30323 17.4222 9.75886 18.0957C10.2146 18.7693 10.0023 19.6019 9.28478 19.9554ZM21.0225 9.96286C20.3049 9.60926 19.3539 9.86876 18.8981 10.5423C18.4425 11.2158 18.6546 12.0485 19.3722 12.402C20.0898 12.7556 21.0409 12.4961 21.4965 11.8225C21.9523 11.149 21.74 10.3163 21.0225 9.96286ZM18.5863 13.6756C17.8689 13.322 16.9178 13.5815 16.462 14.255C16.0064 14.9285 16.2186 15.7612 16.9361 16.1147C17.6536 16.4683 18.6048 16.2088 19.0604 15.5352C19.5162 14.8617 19.3039 14.029 18.5863 13.6756ZM16.0359 17.2602C15.3185 16.9066 14.3673 17.1661 13.9116 17.8397C13.4559 18.5132 13.6682 19.3459 14.3856 19.6994C15.1032 20.053 16.0544 19.7934 16.51 19.1199C16.9658 18.4464 16.7535 17.6137 16.0359 17.2602ZM12.0963 4.42773C11.1434 4.42773 10.371 5.05825 10.371 5.836C10.371 6.61375 11.1434 7.24427 12.0963 7.24427C13.0491 7.24427 13.8215 6.61375 13.8215 5.836C13.8215 5.05825 13.0491 4.42773 12.0963 4.42773Z" fill="#979797"/>
</svg>
