<svg width="20" height="16" viewBox="0 0 20 16" fill="none" xmlns="http://www.w3.org/2000/svg">
<path d="M10.1 13.5586L10 13.6458L9.89 13.5586C5.14 9.80055 2 7.31553 2 4.79564C2 3.05177 3.5 1.74387 5.5 1.74387C7.04 1.74387 8.54 2.6158 9.07 3.80164H10.93C11.46 2.6158 12.96 1.74387 14.5 1.74387C16.5 1.74387 18 3.05177 18 4.79564C18 7.31553 14.86 9.80055 10.1 13.5586ZM14.5 0C12.76 0 11.09 0.706267 10 1.81362C8.91 0.706267 7.24 0 5.5 0C2.42 0 0 2.10136 0 4.79564C0 8.08283 3.4 10.7771 8.55 14.849L10 16L11.45 14.849C16.6 10.7771 20 8.08283 20 4.79564C20 2.10136 17.58 0 14.5 0Z" fill="#979797"/>
</svg>
