<svg width="22" height="19" viewBox="0 0 22 19" fill="none" xmlns="http://www.w3.org/2000/svg">
<path d="M11.4488 0.156001C11.3187 0.0549036 11.1584 0 10.9934 0C10.8284 0 10.6681 0.0549036 10.538 0.156001L0 8.34444L0.911533 9.49323L2.2 8.49206V17.5384C2.20078 17.9258 2.35555 18.2971 2.63043 18.5711C2.90532 18.845 3.27792 18.9992 3.66667 19H18.3333C18.7221 18.9992 19.0947 18.845 19.3696 18.5711C19.6445 18.2971 19.7992 17.9258 19.8 17.5384V8.49863L21.0885 9.49981L22 8.35101L11.4488 0.156001ZM12.4667 17.5384H9.53333V11.6922H12.4667V17.5384ZM13.9333 17.5384V11.6922C13.9329 11.3046 13.7783 10.9331 13.5033 10.6591C13.2284 10.3851 12.8555 10.231 12.4667 10.2306H9.53333C9.14447 10.231 8.77164 10.3851 8.49667 10.6591C8.2217 10.9331 8.06706 11.3046 8.06667 11.6922V17.5384H3.66667V7.35276L11 1.65995L18.3333 7.36007V17.5384H13.9333Z" fill="#979797"/>
</svg>
