<svg width="22" height="23" viewBox="0 0 22 23" fill="none" xmlns="http://www.w3.org/2000/svg">
<path d="M11.3792 0.336708C11.6219 0.121114 11.951 0 12.2941 0C12.6373 0 12.9664 0.121114 13.2091 0.336708L17.0914 3.78674C17.334 4.0024 17.4703 4.29486 17.4703 4.5998C17.4703 4.90475 17.334 5.1972 17.0914 5.41286L13.2091 8.8629C12.965 9.07238 12.6381 9.1883 12.2988 9.18568C11.9595 9.18306 11.6349 9.06211 11.3949 8.84889C11.155 8.63567 11.0189 8.34723 11.016 8.0457C11.013 7.74417 11.1434 7.45368 11.3792 7.23678L13.0525 5.74982H11C6.40847 5.74982 2.58824 9.14465 2.58824 13.2249C2.58824 17.3051 6.40847 20.7 11 20.7C15.5915 20.7 19.4118 17.3051 19.4118 13.2249C19.4118 12.9199 19.5481 12.6274 19.7908 12.4117C20.0335 12.196 20.3627 12.0749 20.7059 12.0749C21.0491 12.0749 21.3783 12.196 21.621 12.4117C21.8637 12.6274 22 12.9199 22 13.2249C22 18.5748 17.0202 23 11 23C4.97976 23 0 18.5748 0 13.2249C0 7.87504 4.97976 3.44979 11 3.44979H13.0525L11.3792 1.96283C11.1366 1.74717 11.0003 1.45471 11.0003 1.14977C11.0003 0.844825 11.1366 0.552367 11.3792 0.336708Z" fill="#979797"/>
</svg>
