<svg width="18" height="18" viewBox="0 0 18 18" fill="none" xmlns="http://www.w3.org/2000/svg">
<path d="M12.4281 13.7901C10.8801 14.9918 8.93226 15.5583 6.98121 15.3744C5.03016 15.1905 3.22253 14.2699 1.92625 12.8001C0.629976 11.3303 -0.0574976 9.42172 0.00376963 7.46286C0.0650369 5.504 0.870439 3.6421 2.25603 2.25618C3.64187 0.870495 5.50364 0.065041 7.46238 0.00376987C9.42112 -0.0575013 11.3296 0.630016 12.7993 1.92637C14.269 3.22273 15.1895 5.03049 15.3734 6.98166C15.5573 8.93283 14.9908 10.8808 13.7892 12.4289L17.6927 16.3326C17.8194 16.4504 17.9121 16.6001 17.9609 16.7661C18.0097 16.932 18.0129 17.1081 17.97 17.2757C17.9272 17.4433 17.8399 17.5963 17.7174 17.7184C17.5949 17.8406 17.4418 17.9275 17.2741 17.9699C17.1067 18.0128 16.9308 18.0098 16.7649 17.9612C16.5991 17.9126 16.4494 17.8203 16.3316 17.6938L12.4281 13.7901ZM13.481 7.70339C13.4925 6.93755 13.3515 6.17708 13.0663 5.46623C12.7812 4.75537 12.3575 4.10832 11.82 3.56271C11.2825 3.01709 10.6419 2.58382 9.93541 2.28807C9.22893 1.99233 8.4707 1.84003 7.70483 1.84003C6.93895 1.84003 6.18072 1.99233 5.47424 2.28807C4.76776 2.58382 4.12713 3.01709 3.58963 3.56271C3.05213 4.10832 2.62847 4.75537 2.34331 5.46623C2.05816 6.17708 1.91719 6.93755 1.9286 7.70339C1.95122 9.22052 2.56974 10.6679 3.65053 11.7327C4.73132 12.7976 6.18762 13.3945 7.70483 13.3945C9.22203 13.3945 10.6783 12.7976 11.7591 11.7327C12.8399 10.6679 13.4584 9.22052 13.481 7.70339Z" fill="#979797"/>
</svg>
