<svg width="138" height="148" viewBox="0 0 138 148" fill="none" xmlns="http://www.w3.org/2000/svg">
<path fill-rule="evenodd" clip-rule="evenodd" d="M57.5 20.0416C51.0188 20.0416 44.803 22.8029 40.2201 27.7179C35.6372 32.6329 33.0625 39.2991 33.0625 46.25C33.0625 53.2008 35.6372 59.867 40.2201 64.7821C44.803 69.6971 51.0188 72.4583 57.5 72.4583C63.9812 72.4583 70.197 69.6971 74.7799 64.7821C79.3628 59.867 81.9375 53.2008 81.9375 46.25C81.9375 39.2991 79.3628 32.6329 74.7799 27.7179C70.197 22.8029 63.9812 20.0416 57.5 20.0416ZM41.6875 46.25C41.6875 41.7523 43.3535 37.4389 46.3189 34.2586C49.2843 31.0783 53.3063 29.2916 57.5 29.2916C61.6937 29.2916 65.7157 31.0783 68.6811 34.2586C71.6466 37.4389 73.3125 41.7523 73.3125 46.25C73.3125 50.7476 71.6466 55.061 68.6811 58.2413C65.7157 61.4216 61.6937 63.2083 57.5 63.2083C53.3063 63.2083 49.2843 61.4216 46.3189 58.2413C43.3535 55.061 41.6875 50.7476 41.6875 46.25Z" fill="#92959A"/>
<path d="M21.5625 104.833C21.5625 101.153 22.9256 97.6243 25.3518 95.0223C27.7781 92.4202 31.0688 90.9584 34.5 90.9584H36.455C36.6103 90.9584 36.7598 90.983 36.9035 91.0324L41.883 92.7775C47.5767 94.7714 53.5566 95.659 59.5413 95.3984C59.9272 95.3747 60.2949 95.214 60.5864 94.9416C60.8779 94.6692 61.0766 94.3005 61.1513 93.8937C61.5768 91.797 62.1633 89.7682 62.905 87.8195C62.984 87.6049 63.0106 87.3722 62.9824 87.1434C62.9541 86.9146 62.8719 86.6973 62.7436 86.5121C62.6152 86.3269 62.4449 86.1799 62.2488 86.0849C62.0526 85.99 61.8372 85.9503 61.6228 85.9695C55.8691 86.5835 50.0594 85.9073 44.5625 83.9839L39.583 82.2387C38.5748 81.8868 37.521 81.7078 36.4608 81.7084H34.5C28.7813 81.7084 23.2968 84.1448 19.253 88.4815C15.2093 92.8183 12.9375 98.7002 12.9375 104.833V112.159C12.9375 116.809 16.077 120.768 20.355 121.514C35.2763 124.129 50.3758 125.153 65.435 124.598C66.3723 124.567 66.8783 123.401 66.355 122.575C65.2334 120.813 64.2561 118.949 63.434 117.006C63.2435 116.545 62.9314 116.153 62.5361 115.879C62.1407 115.605 61.6794 115.461 61.2088 115.465C47.9934 115.699 34.7849 114.667 21.7408 112.381C21.6915 112.373 21.6466 112.346 21.614 112.305C21.5814 112.265 21.5632 112.213 21.5625 112.159V104.833Z" fill="#92959A"/>
<path fill-rule="evenodd" clip-rule="evenodd" d="M69 101.75C69 107.744 70.771 113.294 73.784 117.827C76.1693 121.443 79.3306 124.392 83.0012 126.423C86.6719 128.455 90.7443 129.51 94.875 129.5C99.9926 129.5 104.995 127.873 109.25 124.823C113.506 121.774 116.822 117.44 118.78 112.369C120.739 107.299 121.251 101.719 120.253 96.3363C119.254 90.9533 116.79 86.0087 113.171 82.1278C109.553 78.2469 104.942 75.604 99.923 74.5332C94.9037 73.4625 89.7011 74.012 84.9731 76.1124C80.245 78.2127 76.2039 81.7695 73.3607 86.3329C70.5175 90.8964 69 96.2616 69 101.75ZM94.875 120.25C91.7927 120.256 88.7657 119.372 86.112 117.691L109.739 92.352C111.284 95.1621 112.109 98.3606 112.13 101.623C112.151 104.885 111.367 108.096 109.858 110.928C108.349 113.761 106.168 116.115 103.536 117.752C100.905 119.389 97.917 120.251 94.875 120.25ZM80.0112 111.148L103.638 85.8092C100.343 83.7209 96.4941 82.8672 92.6971 83.3823C88.9001 83.8974 85.3707 85.7522 82.6644 88.6546C79.9581 91.557 78.2287 95.3422 77.7483 99.4143C77.268 103.486 78.0641 107.614 80.0112 111.148Z" fill="#92959A"/>
</svg>
