<svg width="18" height="19" viewBox="0 0 18 19" fill="none" xmlns="http://www.w3.org/2000/svg">
<path d="M4.125 0C3.03116 0.000604098 1.9823 0.44119 1.20884 1.22496C0.435385 2.00873 0.00059615 3.07158 0 4.18C0 6.4866 1.84875 8.36 4.125 8.36C4.73475 8.36 5.3085 8.20572 5.83575 7.95644L9.75 13.1814V17.48H6.75V19H14.25V17.48H11.25V13.1814L17.8597 4.34644L18 4.13288V3.04H8.0625C7.60875 1.2768 5.988 0 4.125 0ZM4.125 1.52C5.1675 1.52 6.0675 2.1584 6.46875 3.04H3V4.13288L3.141 4.34568L4.89825 6.69788C4.65021 6.78893 4.3888 6.83698 4.125 6.84C3.77916 6.84408 3.43601 6.77806 3.11572 6.64582C2.79542 6.51359 2.50444 6.31781 2.25988 6.06999C2.01532 5.82217 1.82212 5.52731 1.69162 5.20274C1.56113 4.87817 1.49598 4.53045 1.5 4.18C1.49598 3.82955 1.56113 3.48183 1.69162 3.15726C1.82212 2.83269 2.01532 2.53783 2.25988 2.29001C2.50444 2.04219 2.79542 1.84641 3.11572 1.71418C3.43601 1.58194 3.77916 1.51592 4.125 1.52ZM5.2035 4.56H15.7965L14.6715 6.08H7.875L9 7.6H13.5233L10.5 11.6614L5.2035 4.56Z" fill="#979797"/>
</svg>
