<svg width="138" height="133" viewBox="0 0 138 133" fill="none" xmlns="http://www.w3.org/2000/svg">
<ellipse cx="69" cy="66.5" rx="69" ry="66.5" fill="#D9D9D9"/>
<path d="M96.4286 71.5714H73.5714V94.4286C73.5714 95.641 73.0898 96.8038 72.2325 97.6611C71.3752 98.5184 70.2124 99 69 99C67.7876 99 66.6248 98.5184 65.7675 97.6611C64.9102 96.8038 64.4286 95.641 64.4286 94.4286V71.5714H41.5714C40.359 71.5714 39.1963 71.0898 38.3389 70.2325C37.4816 69.3752 37 68.2124 37 67C37 65.7876 37.4816 64.6248 38.3389 63.7675C39.1963 62.9102 40.359 62.4286 41.5714 62.4286H64.4286V39.5714C64.4286 38.359 64.9102 37.1962 65.7675 36.3389C66.6248 35.4816 67.7876 35 69 35C70.2124 35 71.3752 35.4816 72.2325 36.3389C73.0898 37.1962 73.5714 38.359 73.5714 39.5714V62.4286H96.4286C97.641 62.4286 98.8038 62.9102 99.6611 63.7675C100.518 64.6248 101 65.7876 101 67C101 68.2124 100.518 69.3752 99.6611 70.2325C98.8038 71.0898 97.641 71.5714 96.4286 71.5714Z" fill="#F5F5F5"/>
</svg>
